<svg width="27" height="26" viewBox="0 0 27 26" fill="none" xmlns="http://www.w3.org/2000/svg">
<path id="Vector" fill-rule="evenodd" clip-rule="evenodd" d="M3.00052 11.5634C3.00052 10.4245 3.23349 9.2968 3.68612 8.24459C4.13875 7.19239 4.80218 6.23633 5.63853 5.431C6.47488 4.62568 7.46778 3.98686 8.56052 3.55102C9.65327 3.11519 10.8245 2.89086 12.0072 2.89086C13.19 2.89086 14.3612 3.11519 15.454 3.55102C16.5467 3.98686 17.5396 4.62568 18.376 5.431C19.2123 6.23633 19.8757 7.19239 20.3284 8.24459C20.781 9.2968 21.014 10.4245 21.014 11.5634C21.014 13.8636 20.065 16.0695 18.376 17.6959C16.6869 19.3223 14.396 20.236 12.0072 20.236C9.61851 20.236 7.32762 19.3223 5.63853 17.6959C3.94944 16.0695 3.00052 13.8636 3.00052 11.5634ZM12.0072 7.14278e-08C10.0961 0.00026354 8.21263 0.439726 6.51336 1.28187C4.81408 2.124 3.34807 3.3445 2.23718 4.84191C1.12628 6.33933 0.402584 8.07041 0.126224 9.89131C-0.150137 11.7122 0.0288228 13.5703 0.648231 15.3112C1.26764 17.0521 2.30961 18.6255 3.68754 19.9007C5.06547 21.1759 6.73956 22.1159 8.5707 22.6428C10.4018 23.1697 12.3371 23.2681 14.2157 22.93C16.0943 22.5918 17.8619 21.8268 19.3717 20.6986L24.456 25.5942C24.7391 25.8575 25.1183 26.0032 25.5119 25.9999C25.9055 25.9967 26.282 25.8446 26.5603 25.5766C26.8386 25.3086 26.9965 24.9461 26.9999 24.5671C27.0034 24.1881 26.8521 23.823 26.5786 23.5504L21.4943 18.6547C22.8725 16.9455 23.7249 14.8981 23.9546 12.7455C24.1844 10.5929 23.7822 8.42136 22.7938 6.47791C21.8054 4.53447 20.2706 2.89706 18.3637 1.7519C16.4569 0.606733 14.2546 -0.000240405 12.0072 7.14278e-08ZM12.0072 17.3452C13.5997 17.3452 15.127 16.736 16.2531 15.6517C17.3791 14.5675 18.0117 13.0969 18.0117 11.5634C18.0117 10.03 17.3791 8.55944 16.2531 7.47515C15.127 6.39087 13.5997 5.78172 12.0072 5.78172C10.4148 5.78172 8.88749 6.39087 7.76143 7.47515C6.63538 8.55944 6.00276 10.03 6.00276 11.5634C6.00276 13.0969 6.63538 14.5675 7.76143 15.6517C8.88749 16.736 10.4148 17.3452 12.0072 17.3452Z" fill="white"/>
</svg>
