<svg width="45" height="40" viewBox="0 0 45 40" fill="none" xmlns="http://www.w3.org/2000/svg">
<g id="ep:back">
<path id="Vector" d="M9.84375 18.75H37.9688C38.3417 18.75 38.6994 18.8817 38.9631 19.1161C39.2268 19.3505 39.375 19.6685 39.375 20C39.375 20.3315 39.2268 20.6495 38.9631 20.8839C38.6994 21.1183 38.3417 21.25 37.9688 21.25H9.84375C9.47079 21.25 9.1131 21.1183 8.84938 20.8839C8.58566 20.6495 8.4375 20.3315 8.4375 20C8.4375 19.6685 8.58566 19.3505 8.84938 19.1161C9.1131 18.8817 9.47079 18.75 9.84375 18.75Z" fill="#699BF7"/>
<path id="Vector_2" d="M10.426 20L22.0894 30.365C22.3535 30.5997 22.5018 30.918 22.5018 31.25C22.5018 31.5819 22.3535 31.9003 22.0894 32.135C21.8254 32.3697 21.4673 32.5016 21.0938 32.5016C20.7204 32.5016 20.3623 32.3697 20.0982 32.135L7.44195 20.885C7.31099 20.7689 7.20709 20.6309 7.13619 20.4791C7.0653 20.3272 7.02881 20.1644 7.02881 20C7.02881 19.8356 7.0653 19.6728 7.13619 19.5209C7.20709 19.369 7.31099 19.2311 7.44195 19.115L20.0982 7.86499C20.3623 7.63028 20.7204 7.49841 21.0938 7.49841C21.4673 7.49841 21.8254 7.63028 22.0894 7.86499C22.3535 8.09971 22.5018 8.41805 22.5018 8.74999C22.5018 9.08193 22.3535 9.40028 22.0894 9.63499L10.426 20Z" fill="#699BF7"/>
</g>
</svg>
