<svg width="50" height="50" viewBox="0 0 50 50" fill="none" xmlns="http://www.w3.org/2000/svg">
<g id="logos:apple-app-store" clip-path="url(#clip0_12_150)">
<path id="Vector" d="M10.95 0H39.05C45.0977 0 50 4.90234 50 10.95V39.05C50 45.0977 45.0977 50 39.05 50H10.95C4.90234 50 0 45.0977 0 39.05V10.95C0 4.90234 4.90234 0 10.95 0Z" fill="url(#paint0_linear_12_150)"/>
<path id="Vector_2" d="M16.0238 36.291L16.0285 36.2926L14.3189 39.2535C13.6949 40.3344 12.3129 40.7047 11.232 40.0807C10.1513 39.4567 9.78083 38.0746 10.4049 36.9938L11.6642 34.8125L11.7851 34.6031C12.001 34.293 12.5336 33.7574 13.599 33.8582C13.599 33.8582 16.1062 34.1303 16.2877 35.4334C16.2877 35.4334 16.3123 35.8621 16.0238 36.291ZM40.2705 28.7285H34.9396C34.5765 28.7041 34.4181 28.5744 34.3556 28.499L34.3517 28.4922L28.6453 18.6082L28.6379 18.6131L28.2957 18.1225C27.7347 17.2647 26.8441 19.4584 26.8441 19.4584C25.7806 21.903 26.9951 24.6821 27.4183 25.5221L35.3445 39.2506C35.9683 40.3313 37.3504 40.7018 38.4314 40.0776C39.5121 39.4535 39.8826 38.0715 39.2584 36.9906L37.2765 33.5578C37.2381 33.4746 37.1713 33.2489 37.5777 33.2479H40.2705C41.5185 33.2479 42.5303 32.2362 42.5303 30.9881C42.5303 29.7401 41.5185 28.7283 40.2705 28.7283V28.7285ZM29.9162 31.8004C29.9162 31.8004 30.2008 33.2479 29.0998 33.2479H9.39294C8.1449 33.2479 7.13318 32.2362 7.13318 30.9881C7.13318 29.7401 8.1449 28.7283 9.39294 28.7283H14.4594C15.2773 28.6811 15.4711 28.2088 15.4711 28.2088L15.4758 28.2112L22.089 16.7565L22.0871 16.7561C22.2076 16.5348 22.1072 16.3256 22.0898 16.2926L19.9056 12.5096C19.2816 11.4289 19.6519 10.0467 20.7328 9.42287C21.8136 8.79885 23.1957 9.16897 23.8197 10.2498L24.8326 12.0043L25.8437 10.253C26.4678 9.17229 27.8498 8.80178 28.9306 9.426C30.0115 10.05 30.3818 11.4319 29.7578 12.5127L20.5551 28.4522C20.5148 28.5492 20.5025 28.7016 20.8019 28.7283H26.3027L26.3039 28.7821C26.3039 28.7821 29.4832 28.8315 29.9162 31.8004Z" fill="white"/>
</g>
<defs>
<linearGradient id="paint0_linear_12_150" x1="25" y1="0" x2="25" y2="50" gradientUnits="userSpaceOnUse">
<stop stop-color="#17C9FB"/>
<stop offset="1" stop-color="#1A74E8"/>
</linearGradient>
<clipPath id="clip0_12_150">
<rect width="50" height="50" fill="white"/>
</clipPath>
</defs>
</svg>
