<svg width="50" height="50" viewBox="0 0 50 50" fill="none" xmlns="http://www.w3.org/2000/svg">
<g id="logos:google-play-icon" clip-path="url(#clip0_12_217)">
<path id="Vector" d="M23.3502 23.8367L0.207031 45.7705C0.466927 46.6036 0.933967 47.372 1.57245 48.0169C2.21093 48.6617 3.00396 49.166 3.8909 49.4911C4.77784 49.8162 5.73521 49.9536 6.68984 49.8927C7.64447 49.8319 8.57108 49.5744 9.39883 49.1399L35.4393 35.724L23.3502 23.8367Z" fill="#EA4335"/>
<path id="Vector_2" d="M46.7519 20.1085L35.4912 14.2739L22.8158 24.3357L35.5427 35.6926L46.7178 29.9205C47.7077 29.4516 48.5369 28.7465 49.1155 27.8817C49.6941 27.0169 49.9999 26.0253 49.9999 25.0144C49.9999 24.0035 49.6941 23.012 49.1155 22.1471C48.5369 21.2823 47.7077 20.5772 46.7178 20.1083H46.7523L46.7519 20.1085Z" fill="#FBBC04"/>
<path id="Vector_3" d="M0.207035 4.14966C0.0671474 4.61747 -0.00248833 5.10019 3.54184e-06 5.58482V44.3352C0.0014539 44.8196 0.0710227 45.3019 0.207035 45.7705L24.1436 24.3984L0.207035 4.14966Z" fill="#4285F4"/>
<path id="Vector_4" d="M23.5227 24.96L35.491 14.274L9.48516 0.795533C8.50671 0.277171 7.39386 0.00265674 6.25996 -5.01994e-05C3.44609 -0.0049972 0.972266 1.6844 0.207031 4.13405L23.5227 24.96Z" fill="#34A853"/>
</g>
<defs>
<clipPath id="clip0_12_217">
<rect width="50" height="50" fill="white"/>
</clipPath>
</defs>
</svg>
