<svg width="70" height="70" viewBox="0 0 70 70" fill="none" xmlns="http://www.w3.org/2000/svg">
<g id="basil:location-outline">
<g id="Group">
<path id="Vector" fill-rule="evenodd" clip-rule="evenodd" d="M21.1459 29.6396C21.1459 26.0078 22.6055 22.5248 25.2037 19.9567C27.8018 17.3886 31.3257 15.9459 35 15.9459C38.6744 15.9459 42.1983 17.3886 44.7964 19.9567C47.3946 22.5248 48.8542 26.0078 48.8542 29.6396C48.8542 33.2714 47.3946 36.7545 44.7964 39.3225C42.1983 41.8906 38.6744 43.3333 35 43.3333C31.3257 43.3333 27.8018 41.8906 25.2037 39.3225C22.6055 36.7545 21.1459 33.2714 21.1459 29.6396ZM35 20.2702C32.486 20.2702 30.0749 21.2574 28.2973 23.0145C26.5196 24.7716 25.5209 27.1547 25.5209 29.6396C25.5209 32.1245 26.5196 34.5077 28.2973 36.2648C30.0749 38.0219 32.486 39.009 35 39.009C37.5141 39.009 39.9251 38.0219 41.7028 36.2648C43.4805 34.5077 44.4792 32.1245 44.4792 29.6396C44.4792 27.1547 43.4805 24.7716 41.7028 23.0145C39.9251 21.2574 37.5141 20.2702 35 20.2702Z" fill="#699BF7"/>
<path id="Vector_2" fill-rule="evenodd" clip-rule="evenodd" d="M10.2784 26.3445C10.7769 20.3677 13.5311 14.7948 17.9942 10.7322C22.4572 6.66955 28.3027 4.41438 34.37 4.4144H35.63C41.6974 4.41438 47.5429 6.66955 52.0059 10.7322C56.469 14.7948 59.2232 20.3677 59.7217 26.3445C60.2765 33.0019 58.1957 39.6123 53.9175 44.7834L39.938 61.68C39.3397 62.4031 38.5863 62.9858 37.7324 63.3859C36.8784 63.7861 35.9451 63.9936 35 63.9936C34.055 63.9936 33.1217 63.7861 32.2677 63.3859C31.4137 62.9858 30.6604 62.4031 30.0621 61.68L16.0825 44.7834C11.8041 39.6124 9.72329 33.0019 10.2784 26.3445ZM34.37 8.73872C29.4015 8.73946 24.6148 10.5867 20.9601 13.9138C17.3055 17.241 15.0501 21.8047 14.6417 26.6991C14.1797 32.2396 15.9113 37.7411 19.4717 42.0447L33.4513 58.9441C33.6392 59.1715 33.8759 59.3547 34.1443 59.4805C34.4126 59.6063 34.7059 59.6715 35.003 59.6715C35.3 59.6715 35.5933 59.6063 35.8616 59.4805C36.13 59.3547 36.3667 59.1715 36.5546 58.9441L50.5342 42.0447C54.0925 37.7402 55.822 32.2388 55.3584 26.6991C54.9499 21.8042 52.6941 17.24 49.0389 13.9129C45.3836 10.5857 40.5962 8.73874 35.6271 8.73872H34.3671H34.37Z" fill="#699BF7"/>
</g>
</g>
</svg>
