<svg width="70" height="71" viewBox="0 0 70 71" fill="none" xmlns="http://www.w3.org/2000/svg">
<g id="mdi:cart">
<path id="Vector" d="M49.5834 52.8765C46.3459 52.8765 43.7501 55.4422 43.7501 58.6422C43.7501 60.1714 44.3647 61.6379 45.4586 62.7192C46.5526 63.8005 48.0363 64.408 49.5834 64.408C51.1305 64.408 52.6142 63.8005 53.7082 62.7192C54.8022 61.6379 55.4167 60.1714 55.4167 58.6422C55.4167 57.1131 54.8022 55.6465 53.7082 54.5652C52.6142 53.4839 51.1305 52.8765 49.5834 52.8765ZM2.91675 6.75034V12.5161H8.75008L19.2501 34.3972L15.2834 41.4602C14.8459 42.2675 14.5834 43.2188 14.5834 44.2278C14.5834 45.757 15.198 47.2235 16.292 48.3048C17.3859 49.3861 18.8697 49.9936 20.4167 49.9936H55.4167V44.2278H21.6417C21.4484 44.2278 21.2629 44.1519 21.1261 44.0167C20.9894 43.8816 20.9126 43.6982 20.9126 43.5071C20.9126 43.3629 20.9417 43.2476 21.0001 43.1611L23.6251 38.462H45.3542C47.5417 38.462 49.4667 37.2512 50.4584 35.4927L60.9001 16.8404C61.1042 16.3792 61.2501 15.8891 61.2501 15.399C61.2501 14.6344 60.9428 13.9011 60.3958 13.3605C59.8488 12.8198 59.107 12.5161 58.3334 12.5161H15.1959L12.4542 6.75034M20.4167 52.8765C17.1792 52.8765 14.5834 55.4422 14.5834 58.6422C14.5834 60.1714 15.198 61.6379 16.292 62.7192C17.3859 63.8005 18.8697 64.408 20.4167 64.408C21.9638 64.408 23.4476 63.8005 24.5415 62.7192C25.6355 61.6379 26.2501 60.1714 26.2501 58.6422C26.2501 57.1131 25.6355 55.6465 24.5415 54.5652C23.4476 53.4839 21.9638 52.8765 20.4167 52.8765Z" fill="#699BF7"/>
</g>
</svg>
