<svg width="54" height="50" viewBox="0 0 54 50" fill="none" xmlns="http://www.w3.org/2000/svg">
<g id="mdi:cart">
<path id="Vector" d="M38.25 37.5C35.7525 37.5 33.75 39.3542 33.75 41.6667C33.75 42.7717 34.2241 43.8315 35.068 44.6129C35.9119 45.3943 37.0565 45.8333 38.25 45.8333C39.4435 45.8333 40.5881 45.3943 41.432 44.6129C42.2759 43.8315 42.75 42.7717 42.75 41.6667C42.75 40.5616 42.2759 39.5018 41.432 38.7204C40.5881 37.939 39.4435 37.5 38.25 37.5ZM2.25 4.16666V8.33332H6.75L14.85 24.1458L11.79 29.25C11.4525 29.8333 11.25 30.5208 11.25 31.25C11.25 32.3551 11.7241 33.4149 12.568 34.1963C13.4119 34.9777 14.5565 35.4167 15.75 35.4167H42.75V31.25H16.695C16.5458 31.25 16.4027 31.1951 16.2973 31.0974C16.1918 30.9998 16.1325 30.8673 16.1325 30.7292C16.1325 30.625 16.155 30.5417 16.2 30.4792L18.225 27.0833H34.9875C36.675 27.0833 38.16 26.2083 38.925 24.9375L46.98 11.4583C47.1375 11.125 47.25 10.7708 47.25 10.4167C47.25 9.86412 47.0129 9.33422 46.591 8.94352C46.169 8.55282 45.5967 8.33332 45 8.33332H11.7225L9.6075 4.16666M15.75 37.5C13.2525 37.5 11.25 39.3542 11.25 41.6667C11.25 42.7717 11.7241 43.8315 12.568 44.6129C13.4119 45.3943 14.5565 45.8333 15.75 45.8333C16.9435 45.8333 18.0881 45.3943 18.932 44.6129C19.7759 43.8315 20.25 42.7717 20.25 41.6667C20.25 40.5616 19.7759 39.5018 18.932 38.7204C18.0881 37.939 16.9435 37.5 15.75 37.5Z" fill="white"/>
</g>
</svg>
